<?xml version="1.0" encoding="UTF-8"?>
<svg id="Layer_2" data-name="Layer 2" xmlns="http://www.w3.org/2000/svg" viewBox="0 0 378.52 230.65">
  <defs>
    <style>
      .cls-1 {
        font-size: 72px;
      }

      .cls-1, .cls-2 {
        font-family: Impact, Impact;
      }

      .cls-1, .cls-2, .cls-3 {
        fill: #fff;
        stroke: #000;
        stroke-miterlimit: 10;
      }

      .cls-2 {
        font-size: 90px;
      }
    </style>
  </defs>
  <g id="Layer_3" data-name="Layer 3">
    <g>
      <path class="cls-3" d="m30.64,179h.02c.49.13.83.58.8,1.08-.2,4.19-1.04,22.28-1.04,22.28l-2.19.88c-.66,2,.16,3.59.19,3.59h6.53c.27,0,.51-.21.54-.48l2.58-22.85c-.03-.62.04-1.25.21-1.85,0,0,1.12-2.6,1.73-3.69.57-1.01.86-1.52,1-2,.35-1.2.06-1.83,0-4-.03-.97,0-1.75.03-2.21,2.08-7.66,4.15-15.31,6.23-22.97l3.26-3.26c.52-.52,1.39-.31,1.62.38l5.04,15.11c.39,1.17.39,2.43,0,3.6l-.38,1.15c-.49,1.46-.27,3.06.58,4.34l.69,1.03c.39.58.59,1.26.59,1.95v4.43c0,1.49.75,2.89,1.99,3.72l2.1,1.94c.47.44.78,1.02.87,1.66l.29,2.02c.01.07.03.13.04.2l2.45,9.79c.1.39.15.78.17,1.18l-.02,8.45c0,.57.46,1.03,1.03,1.03l5.87.07c.58,0,.98-.57.77-1.11l-3.29-7.29-.42-17.58c-.01-.54.14-1.07.44-1.52l.18-.83c.16-.73.13-1.48-.09-2.2l-.99-3.3-.48-6.76c-.08-1.19-.25-2.37-.49-3.54l-3.03-20.35c-.31-1.53.86-3.67,2.24-4.41l16.12-7.67c1.5-.71,3.17-.99,4.82-.81l8.22.14c.6.01,1.08-.48,1.05-1.08l-.36-9.31c-.02-.57-.46-1.05-1.03-1.12l-1.69.38c-.39.09-.73-.26-.65-.64l.78-3.64c.19-.87-.46-1.7-1.35-1.74l-7.19-.31c-.31-.01-.39-.43-.11-.56l5.36-2.52c.55-.26.75-.93.44-1.44l-1.26-2.1c-.43-.72-1.38-.94-2.09-.49l-8.03,5.14c-1.07.69-1.96,1.63-2.58,2.75l-5.28,9.5c-.22.39-.64.64-1.09.64l-7.01.88c-1.03,0-1.85-.87-1.79-1.9l.3-19.76c.01-.91.68-1.67,1.58-1.8l5.25-.38c1.97-.14,3.65-1.48,4.24-3.36l.03-.09c.67-2.14-.49-4.41-2.61-5.11-1.86-.61-3.98-1.32-5.33-1.77-.85-.28-1.46-1.02-1.59-1.9l-.02-.16c-.12-.82.44-1.58,1.25-1.72,1.6-.71,3.61-1.43,5.99-1.94,3.33-.7,6.24-.73,8.41-.58.16-.03.75-.15,1.2-.69.3-.35.47-.81.47-1.3,0-1.2-1.04-2.14-2.23-2.01l-14.86,1.52-1.84-3.69c-.12-.24.12-.51.37-.41l2.68,1.07c.41.17.85-.2.74-.64l-.64-3.79c1.15-1.62,2.41-3.66,3.51-6.14,1.75-3.94,2.47-7.54,2.78-10.21.03-.08,0-.18-.07-.23-.07-.05-.16-.05-.24.02l-3.94,3.58c-.12.11-.31.04-.34-.12l-.53-4c-.78-5.83-2.08-11.59-3.88-17.19l-1.67-5.17.44,8.33c-.76-.19-2.73-.79-4.38-2.63-1.9-2.12-2.14-4.52-2.19-5.26.41-.58,1.04-1.62,1.31-3.07.39-2.04-.16-3.69-.44-4.38-.07.5-.42,2.49-2.19,3.94-1.2.98-2.48,1.24-3.07,1.31.93-2.42,1.99-6.03,2.19-10.52.17-3.76-.33-6.92-.88-9.2-.17.9-.53,2.16-1.32,3.51-1.28,2.18-3.01,3.39-3.94,3.94-.44-2.22-.82-5.41-.44-9.2.37-3.71,1.34-6.7,2.19-8.77-1.19.39-2.76,1.05-4.38,2.19-2.55,1.79-4.04,3.92-4.82,5.26.11-.46.45-2.14-.44-3.94-.82-1.66-2.18-2.41-2.63-2.63.24.64.62,1.9.44,3.51-.19,1.72-.92,2.94-1.32,3.51-.38-.03-.86-.14-1.31-.44-1.02-.67-1.51-2.04-1.31-3.51-.62,2.06-.6,3.69-.44,4.82.31,2.19.35,4.43.88,6.57.02.08.08.3-.02.38-.25.19-1.38-.74-2.17-1.69-.81-.97-1.15-1.84-2.19-4.38,0,0,.69,3.26,1.75,8.33-.63,2.45-1.2,5.57-1.31,9.2-.09,2.84.13,5.35.44,7.45-1.61-2.05-3.21-4.09-4.82-6.14.05,1.8.44,7.08,4.38,11.83,2.49,3,5.34,4.53,7.01,5.26-.52,3.11-1.04,6.22-1.55,9.33-.07.44-.64.57-.9.21l-3.32-4.65c-.09-.12-.28-.04-.25.11l.97,5.48c.07.4-.43.65-.7.35l-4.23-4.53c-.32-.34-.88-.09-.85.37l.76,6.05c.88,3.07,2.32,4.3,2.63,5.26l4.94,7.5c.2.25.3.57.26.88-.21,1.86-1.95,3.14-3.79,2.78l-12.48-2.43c-1.08-.21-2.09.62-2.09,1.72,0,1.55,1.13,2.87,2.66,3.11,1.42-.23,3.57-.41,6.11.02,2.26.39,4.05,1.13,5.26,1.75,1.47,1.44,2.95,2.89,4.42,4.33.69.98.42,2.35-.59,2.99l-10.5,7.68c-1.73,1.47-2.17,3.96-1.07,5.94l5.68,3.61c.72.8,1.83,1.11,2.86.78l4.09-1.3c.55.45,1.09.9,1.64,1.36l-1.69,17.98c-.02.7-.66,1.2-1.34,1.05l-17.22-3.91c-.4-.09-.79.19-.84.59l-.17,1.51c-.11.96-.91,1.69-1.87,1.71l-11.65.27c-.89.07-1.57.81-1.57,1.7v1.45c0,.48.43.86.91.79l1.28.13c.08-.02.88-.36.88-.27l-.88,2.46-2.63.88c-.43.19-.34,2.09-.2,2.53l1.97,6.49c.5,1.66,2.06,2.76,3.79,2.69l17.16-.73c.33-.01.67,0,1,.06l6.28,1.05c.64.11,1.11.67,1.1,1.32l-.39,22.05c.11.68.1,1.38-.04,2.06v.2c0,.41-.15.79-.42,1.08-.35.47-.72,1.04-1.04,1.73-.74,1.56.57,7.02.62,7.04Z"/>
      <text class="cls-2" transform="translate(87.83 200.4)"><tspan x="0" y="0">weguns</tspan></text>
      <text class="cls-1" transform="translate(133.05 135.08)"><tspan x="0" y="0">AR.THDK</tspan></text>
    </g>
  </g>
</svg>