<svg width="156" height="52" viewBox="0 0 156 52" fill="none" xmlns="http://www.w3.org/2000/svg">
<g id="Asset 1 1" clip-path="url(#clip0_11_920)">
<g id="Layer 2">
<g id="Layer 1">
<path id="Vector" d="M56.59 12.54C57.6055 12.0087 58.4433 11.1918 59 10.19C59.5768 9.11152 59.8661 7.90269 59.84 6.67996C59.859 5.458 59.5701 4.25091 59 3.16996C58.4487 2.17002 57.6135 1.35578 56.6 0.829961C55.5153 0.261209 54.3045 -0.0242914 53.08 -3.9119e-05H43.9V23.15H47.14V13.37H52L56.93 23.15H60.78L55.42 13C55.825 12.888 56.2171 12.7338 56.59 12.54ZM47.14 3.08996H53.21C53.7871 3.07952 54.3555 3.23203 54.85 3.52996C55.3486 3.83251 55.7482 4.27384 56 4.79996C56.27 5.38922 56.4033 6.03191 56.39 6.67996C56.4024 7.33115 56.2692 7.9769 56 8.56996C55.7618 9.08991 55.3757 9.52816 54.89 9.82996C54.401 10.1332 53.8352 10.2894 53.26 10.28H47.14V3.08996Z" fill="white"/>
<path id="Vector_2" d="M71.72 0L63.19 23.15H66.69L68.43 18.08H77.77L79.52 23.15H83L74.49 0H71.72ZM69.5 15L73.1 4.5L76.71 15H69.5Z" fill="white"/>
<path id="Vector_3" d="M92.86 18.16L87.31 0.0200195H83.77L91.32 23.15H94.4L101.94 0.0200195H98.41L92.86 18.16Z" fill="white"/>
<path id="Vector_4" d="M108.09 0.0200195H106.52V23.15H108.09H109.77H121.38V20.06H109.77V13.21H119.63V10.12H109.77V3.10002H121.38V0.0200195H109.77H108.09Z" fill="white"/>
<path id="Vector_5" d="M140.94 0.0200195V17.3L130.01 0.0200195H127.07V23.14H130.28V6.12002L141.18 23.14H144.16V0.0200195H140.94Z" fill="white"/>
<path id="Vector_6" d="M56 29.5799C54.51 28.889 52.882 28.547 51.24 28.5799H43.9V51.7499H51.22C52.8624 51.7868 54.4912 51.4446 55.98 50.7499C57.245 50.1649 58.2994 49.2048 59 47.9999C59.7106 46.613 60.0549 45.0674 60 43.5099V36.8999C60.0563 35.3456 59.7119 33.8028 59 32.4199C58.3192 31.1847 57.2707 30.192 56 29.5799ZM56.72 43.5799C56.7622 44.2675 56.6585 44.9563 56.4154 45.6009C56.1724 46.2455 55.7957 46.8314 55.31 47.3199C54.204 48.273 52.7665 48.751 51.31 48.6499H47.14V31.6499H51.33C52.7865 31.5489 54.224 32.0268 55.33 32.9799C55.8164 33.47 56.1936 34.0576 56.4366 34.7039C56.6797 35.3503 56.783 36.0407 56.74 36.7299L56.72 43.5799Z" fill="white"/>
<path id="Vector_7" d="M68.21 28.61H64.96V51.75H68.21V28.61Z" fill="white"/>
<path id="Vector_8" d="M81.73 42.39H86.43V43.39C86.4531 44.3919 86.2515 45.3862 85.84 46.3C85.4819 47.0757 84.9004 47.7269 84.17 48.17C83.4044 48.6101 82.5327 48.8315 81.65 48.81C80.7608 48.8256 79.8827 48.6121 79.1 48.19C78.3711 47.791 77.7762 47.1857 77.39 46.45C76.9756 45.64 76.7694 44.7396 76.79 43.83V37C76.768 36.0121 76.9661 35.0318 77.37 34.13C77.7236 33.3558 78.2886 32.6972 79 32.23C79.7556 31.7613 80.6309 31.5216 81.52 31.54C82.1814 31.5429 82.8339 31.6932 83.43 31.98C84.0545 32.2782 84.6045 32.7121 85.04 33.25C85.52 33.8326 85.8619 34.5164 86.04 35.25H89.55C89.3119 33.9452 88.7821 32.7111 88 31.64C87.2781 30.6194 86.3166 29.7918 85.2 29.23C84.0626 28.6551 82.8043 28.3603 81.53 28.37C80.0386 28.3397 78.5668 28.7128 77.27 29.45C76.056 30.1579 75.0704 31.1991 74.43 32.45C73.7381 33.8579 73.3952 35.4116 73.43 36.98V43.81C73.3919 45.2987 73.7362 46.7723 74.43 48.09C75.095 49.3267 76.111 50.3392 77.35 51C78.6766 51.6892 80.1554 52.0331 81.65 52C83.1417 52.0333 84.6143 51.66 85.91 50.92C87.1293 50.2189 88.1167 49.1759 88.75 47.92C89.4415 46.5084 89.7844 44.9515 89.75 43.38V39.38H81.75L81.73 42.39Z" fill="white"/>
<path id="Vector_9" d="M97.94 28.61H94.69V51.75H97.94V28.61Z" fill="white"/>
<path id="Vector_10" d="M118.08 31.7V28.61H101.75V31.7H108.29V51.75H111.54V31.7H118.08Z" fill="white"/>
<path id="Vector_11" d="M126.13 28.61L117.6 51.75H121.1L122.84 46.67H132.18L133.92 51.75H137.42L128.9 28.61H126.13ZM123.9 43.61L127.51 33.1L131.12 43.61H123.9Z" fill="white"/>
<path id="Vector_12" d="M144.17 48.66V28.61H140.92V51.75H142.55H144.17H155.78V48.66H144.17Z" fill="white"/>
<path id="Vector_13" d="M2.37999 51.53C7.65999 47.67 20 37.11 21.78 21.44C23.85 3 32.77 0.33 34.19 0H17C16.1335 0.00746451 15.2683 0.0709301 14.41 0.19C10.3961 0.808748 6.73637 2.84403 4.09317 5.92746C1.44997 9.01089 -0.00202968 12.9387 -9.76585e-06 17V36.29C0.53999 36.12 1.06999 35.93 1.57999 35.73C8.32999 33.12 13.11 25.73 14.82 17.59C13.126 26.3096 8.10495 34.0276 0.81999 39.11C0.54999 39.32 0.27999 39.5 -0.0100098 39.69V51.62H0.25999C0.66999 51.62 1.06999 51.62 1.47999 51.62L2.39999 51.56L2.37999 51.53ZM11.25 7.79C11.0261 7.78999 10.8072 7.72346 10.6212 7.59884C10.4351 7.47423 10.2903 7.29715 10.2051 7.09009C10.1199 6.88303 10.0981 6.65531 10.1425 6.43584C10.1869 6.21638 10.2955 6.01505 10.4546 5.85743C10.6136 5.6998 10.8159 5.59297 11.0357 5.55051C11.2556 5.50804 11.4831 5.53185 11.6894 5.61891C11.8957 5.70598 12.0715 5.85237 12.1944 6.0395C12.3174 6.22664 12.382 6.44609 12.38 6.67C12.38 6.81793 12.3507 6.96439 12.2938 7.10093C12.2369 7.23747 12.1535 7.36138 12.0484 7.46552C11.9434 7.56965 11.8187 7.65194 11.6817 7.70763C11.5446 7.76333 11.3979 7.79132 11.25 7.79Z" fill="white"/>
<path id="Vector_14" d="M34.09 0C33.7851 0.076907 33.4847 0.170379 33.19 0.28C30.48 1.28 23.68 5.42 21.92 21.09C20.72 31.81 14.46 40.09 9.02997 45.44C8.11997 45.53 7.17997 45.58 6.22997 45.58C5.80997 45.58 5.38997 45.58 4.96997 45.58C10.41 40.26 16.67 31.95 17.87 21.23C19.14 10 24.91 3.93 28.08 1.43C30.0503 0.823969 32.0578 0.3463 34.09 0V0Z" fill="#EFEFEF"/>
<path id="Vector_15" d="M28.08 1.42993C24.91 3.92993 19.14 9.99993 17.87 21.1999C16.67 31.9199 10.41 40.1999 4.96999 45.5499C4.64998 45.5499 4.34999 45.5499 4.03999 45.5499C2.88693 45.4335 1.74165 45.2498 0.609985 44.9999C0.889985 42.9999 1.06999 41.0999 1.32999 38.7199C8.51785 33.6156 13.4607 25.9363 15.13 17.2799C13.44 25.2799 8.33999 32.5799 2.02999 35.5199C3.82999 23.8899 8.48998 8.26993 26.48 1.99993C27 1.77993 27.53 1.59993 28.08 1.42993Z" fill="#F5F5F5"/>
<path id="Vector_16" d="M23.18 21.5699C22 32.3799 15.72 40.7599 10.21 46.1999C15.9524 45.3622 21.3004 42.7853 25.534 38.8163C29.7677 34.8472 32.6838 29.6764 33.89 23.9999C33.9766 23.5599 34.0566 23.1199 34.13 22.6799C34.13 22.6199 34.47 19.8799 34.53 16.2999C34.64 10.3599 34.53 2.16991 34.53 0.409912C31.69 1.53991 25 5.84991 23.18 21.5699Z" fill="white"/>
<path id="Vector_17" d="M34.51 0.399976C34.51 2.14998 34.62 10.4 34.51 16.29C34.45 19.87 34.13 22.6 34.12 22.66C34.05 23.11 33.96 23.55 33.88 23.99C32.6807 29.6665 29.771 34.8394 25.5426 38.8121C21.3142 42.7848 15.9702 45.3666 10.23 46.21C8.25667 48.1635 6.14448 49.9716 3.90997 51.62C11.2205 50.841 18.0883 47.7378 23.5044 42.7663C28.9205 37.7948 32.5992 31.2172 34 24C34.08 23.56 34.17 23.12 34.24 22.67C34.24 22.51 34.29 22.34 34.3 22.17C34.4321 21.2783 34.5189 20.3805 34.56 19.48C34.61 18.81 34.63 18.13 34.63 17.48V0.349976L34.51 0.399976Z" fill="#EFEFEF"/>
</g>
</g>
</g>
<defs>
<clipPath id="clip0_11_920">
<rect width="155.79" height="51.99" fill="white"/>
</clipPath>
</defs>
</svg>
