<?xml version="1.0" encoding="UTF-8"?>
<svg id="Layer_1" data-name="Layer 1" xmlns="http://www.w3.org/2000/svg" viewBox="0 0 1920 1080">
  <defs>
    <style>
      .cls-1 {
        fill: #0c1117;
        stroke: #000;
      }

      .cls-1, .cls-2 {
        stroke-miterlimit: 10;
      }

      .cls-2 {
        fill: #26303b;
        stroke: #26303b;
      }
    </style>
  </defs>
  <rect class="cls-1" x=".5" y=".5" width="1920" height="1080"/>
  <path class="cls-2" d="m878.74,863.2l.1.02c2.12.53,3.56,2.45,3.45,4.61-.87,18.05-4.47,95.93-4.47,95.93l-9.43,3.77c-2.86,8.63.68,15.45.83,15.45h28.11c1.18,0,2.18-.89,2.31-2.06l11.1-98.35c-.13-2.68.17-5.38.9-7.95,0,0,4.81-11.21,7.47-15.9,2.47-4.36,3.7-6.54,4.3-8.61,1.49-5.15.27-7.86,0-17.22-.12-4.16.01-7.52.12-9.53,8.94-32.96,17.88-65.92,26.82-98.88l14.04-14.04c2.22-2.22,5.99-1.33,6.98,1.65l21.68,65.03c1.68,5.03,1.68,10.47,0,15.5l-1.65,4.94c-2.09,6.28-1.17,13.17,2.5,18.68l2.96,4.44c1.66,2.49,2.54,5.41,2.54,8.4v19.08c0,6.43,3.21,12.44,8.57,16.01l9.04,8.36c2.04,1.88,3.36,4.41,3.76,7.16l1.24,8.71c.06.29.11.58.17.87l10.56,42.16c.42,1.67.67,3.37.74,5.09l-.1,36.38c0,2.45,1.97,4.43,4.42,4.43l25.29.3c2.48.03,4.2-2.47,3.3-4.78l-14.15-31.37-1.8-75.68c-.06-2.32.61-4.6,1.89-6.54l.77-3.57c.67-3.14.54-6.39-.38-9.46l-4.26-14.19-2.05-29.11c-.36-5.12-1.06-10.2-2.09-15.23l-13.04-87.61c-1.35-6.59,3.71-15.81,9.63-19l69.38-33.04c6.45-3.07,13.63-4.28,20.73-3.49l35.37.6c2.56.04,4.63-2.07,4.54-4.63l-1.54-40.06c-.1-2.47-1.97-4.51-4.42-4.81l-7.28,1.62c-1.66.37-3.15-1.11-2.8-2.77l3.36-15.66c.81-3.76-1.96-7.34-5.8-7.5l-30.94-1.35c-1.32-.06-1.68-1.84-.48-2.4l23.06-10.85c2.35-1.1,3.23-4,1.89-6.22l-5.42-9.04c-1.86-3.11-5.93-4.06-8.98-2.11l-34.55,22.11c-4.63,2.96-8.44,7.02-11.11,11.83l-22.71,40.88c-.94,1.7-2.73,2.75-4.68,2.75l-30.17,3.77c-4.45,0-7.98-3.74-7.72-8.18l1.31-85.05c.06-3.9,2.95-7.18,6.81-7.73l22.58-1.64c8.49-.62,15.73-6.36,18.27-14.48l.12-.39c2.88-9.23-2.13-19-11.24-22.01-8-2.64-17.12-5.67-22.93-7.6-3.65-1.21-6.3-4.39-6.84-8.2l-.1-.67c-.5-3.52,1.88-6.81,5.39-7.42,6.87-3.04,15.54-6.16,25.79-8.33,14.34-3.03,26.86-3.16,36.18-2.51.68-.12,3.21-.65,5.17-2.98,1.28-1.53,2.04-3.49,2.04-5.61,0-5.17-4.47-9.2-9.61-8.67l-63.98,6.56-7.94-15.88c-.52-1.04.52-2.18,1.61-1.75l11.54,4.61c1.79.71,3.64-.87,3.21-2.75l-2.75-16.32c4.97-6.96,10.36-15.75,15.1-26.42,7.53-16.96,10.64-32.46,11.97-43.95.14-.35.01-.76-.3-.97-.29-.2-.69-.22-1.01.07l-16.98,15.43c-.52.47-1.36.17-1.45-.53l-2.3-17.22c-3.35-25.11-8.94-49.87-16.72-73.98l-7.18-22.25,1.89,35.85c-3.28-.81-11.76-3.38-18.87-11.32-8.18-9.14-9.23-19.45-9.43-22.64,1.78-2.5,4.48-6.99,5.66-13.21,1.67-8.8-.69-15.88-1.89-18.87-.31,2.16-1.79,10.74-9.43,16.98-5.19,4.24-10.67,5.32-13.21,5.66,3.99-10.4,8.59-25.96,9.43-45.29.71-16.18-1.43-29.78-3.77-39.63-.74,3.87-2.27,9.32-5.66,15.1-5.51,9.4-12.95,14.59-16.98,16.98-1.89-9.54-3.53-23.27-1.89-39.63,1.61-15.98,5.78-28.85,9.43-37.74-5.12,1.68-11.86,4.51-18.87,9.43-11,7.73-17.39,16.89-20.76,22.64.48-1.98,1.96-9.21-1.89-16.98-3.53-7.14-9.4-10.36-11.32-11.32,1.03,2.74,2.65,8.2,1.89,15.1-.82,7.42-3.97,12.66-5.66,15.1-1.65-.14-3.71-.6-5.66-1.89-4.38-2.89-6.48-8.77-5.66-15.1-2.69,8.89-2.57,15.87-1.89,20.76,1.32,9.43,1.52,19.06,3.77,28.3.08.33.32,1.31-.09,1.62-1.07.81-5.95-3.19-9.34-7.28-3.47-4.18-4.94-7.92-9.43-18.87,0,0,2.95,14.02,7.55,35.85-2.72,10.53-5.18,23.96-5.66,39.63-.37,12.22.54,23.05,1.89,32.08-6.92-8.81-13.84-17.61-20.76-26.42.22,7.74,1.89,30.48,18.87,50.95,10.7,12.9,22.99,19.48,30.19,22.64-2.23,13.38-4.46,26.76-6.69,40.15-.32,1.9-2.77,2.46-3.89.9l-14.3-20.02c-.37-.52-1.19-.18-1.08.45l4.16,23.6c.31,1.73-1.83,2.8-3.03,1.51l-18.22-19.52c-1.36-1.46-3.81-.38-3.65,1.61l3.29,26.04c3.77,13.21,9.97,18.52,11.32,22.64l21.28,32.3c.87,1.07,1.28,2.44,1.13,3.81-.89,7.99-8.41,13.52-16.31,11.98l-53.7-10.48c-4.67-.91-9,2.66-9,7.42,0,6.67,4.86,12.34,11.44,13.37,6.12-1,15.36-1.78,26.29.1,9.74,1.68,17.43,4.88,22.64,7.55,6.35,6.21,12.69,12.43,19.04,18.64,2.99,4.23,1.82,10.1-2.55,12.87l-45.2,33.06c-7.44,6.34-9.36,17.05-4.59,25.58l24.46,15.52c3.08,3.44,7.9,4.76,12.3,3.36l17.61-5.59c2.36,1.95,4.71,3.89,7.07,5.84l-7.26,77.38c-.07,3-2.86,5.18-5.78,4.51l-74.14-16.85c-1.72-.39-3.4.8-3.6,2.56l-.72,6.49c-.46,4.12-3.9,7.28-8.05,7.37l-50.14,1.18c-3.82.3-6.77,3.49-6.77,7.32v6.25c0,2.08,1.84,3.68,3.9,3.4l5.53.54c.37-.07,3.77-1.54,3.77-1.17l-3.77,10.6-11.32,3.77c-1.83.81-1.45,8.99-.86,10.91l8.5,27.93c2.17,7.13,8.89,11.89,16.33,11.57l73.87-3.14c1.44-.06,2.88.03,4.3.26l27.02,4.5c2.76.46,4.77,2.87,4.72,5.67l-1.69,94.93c.48,2.93.42,5.96-.16,8.87l-.02.86c.03,1.75-.63,3.4-1.8,4.64-1.5,2.02-3.09,4.5-4.49,7.45-3.2,6.72,2.44,30.23,2.68,30.3Z"/>
</svg>